<?xml version="1.0" encoding="UTF-8" standalone="no"?><!DOCTYPE svg PUBLIC "-//W3C//DTD SVG 1.1//EN" "http://www.w3.org/Graphics/SVG/1.1/DTD/svg11.dtd"><svg width="100%" height="100%" viewBox="0 0 2134 2134" version="1.1" xmlns="http://www.w3.org/2000/svg" xmlns:xlink="http://www.w3.org/1999/xlink" xml:space="preserve" xmlns:serif="http://www.serif.com/" style="fill-rule:evenodd;clip-rule:evenodd;stroke-linejoin:round;stroke-miterlimit:2;"><g id="Buch-Hintergrund" serif:id="Buch Hintergrund"><path id="Dunkles-Rechteck" serif:id="Dunkles Rechteck" d="M1805.19,332.427c0,-69.279 -56.245,-125.525 -125.524,-125.525l-1049.06,0c-69.279,0 -125.525,56.246 -125.525,125.525l0,1634.67c0,69.279 56.246,125.525 125.525,125.525l1049.06,0c69.279,0 125.524,-56.246 125.524,-125.525l0,-1634.67Z" style="fill:#747d8c;"/><rect id="Zwischenlinie" x="702.617" y="206.902" width="89.737" height="1885.72" style="fill:#57606f;"/><path id="Cover-hinten" serif:id="Cover hinten" d="M1934.1,331.601c0,-68.823 -29.221,-124.699 -96.045,-124.699l-887.379,0c0,265.6 -3.902,1904.2 0,1885.72l887.379,0.155c66.824,0 96.045,-56.031 96.045,-124.854l0,-1636.32Z" style="fill:#747d8c;"/><path id="Blätter" d="M1886.22,376.919c0,-55.503 -45.061,-100.564 -100.563,-100.564l-884.595,0l0,1757.03l884.595,0c55.502,0 100.563,-45.061 100.563,-100.563l0,-1555.91Z" style="fill:#fff;"/><path id="Cover-vorne" serif:id="Cover vorne" d="M1805.19,331.601c0,-68.823 -55.875,-124.699 -124.698,-124.699l-888.138,0c0,265.6 -4.019,1904.2 0,1885.72l888.138,0c68.823,0 124.698,-55.876 124.698,-124.699l0,-1636.32Z" style="fill:#a4b0be;"/></g><g id="Buch-Vordergrund" serif:id="Buch Vordergrund"><path id="Dunkles-Rechteck1" serif:id="Dunkles Rechteck" d="M1499.35,166.084c0,-69.279 -56.246,-125.525 -125.525,-125.525l-1049.06,0c-69.279,0 -125.525,56.246 -125.525,125.525l0,1634.67c0,69.279 56.246,125.525 125.525,125.525l1049.06,0c69.279,0 125.525,-56.246 125.525,-125.525l0,-1634.67Z" style="fill:#004846;"/><rect id="Zwischenlinie1" serif:id="Zwischenlinie" x="396.776" y="40.559" width="89.737" height="1885.72" style="fill:#002827;"/><path id="Cover-hinten1" serif:id="Cover hinten" d="M1628.26,165.258c0,-68.823 -29.22,-124.699 -96.045,-124.699l-887.379,0c0,265.6 -3.902,1904.2 0,1885.72l887.379,0.155c66.825,0 96.045,-56.031 96.045,-124.854l0,-1636.32Z" style="fill:#004846;"/><path id="Blätter1" serif:id="Blätter" d="M1580.38,210.576c0,-55.503 -45.061,-100.564 -100.564,-100.564l-884.594,0l0,1757.03l884.594,0c55.503,0 100.564,-45.061 100.564,-100.563l0,-1555.91Z" style="fill:#fff;"/><path id="Cover-vorne1" serif:id="Cover vorne" d="M1499.35,165.258c0,-68.823 -55.876,-124.699 -124.699,-124.699l-888.137,0c0,265.6 -4.019,1904.2 0,1885.72l888.137,0c68.823,0 124.699,-55.876 124.699,-124.699l0,-1636.32Z" style="fill:#006966;"/><path d="M1342.77,1646.11c0,-13.541 -10.994,-24.535 -24.535,-24.535l-425.977,0c-13.541,0 -24.535,10.994 -24.535,24.535l0,49.07c0,13.542 10.994,24.536 24.535,24.536l425.977,0c13.541,0 24.535,-10.994 24.535,-24.536l0,-49.07Z" style="fill:#004846;"/><path d="M1342.77,1475.12c0,-13.541 -10.994,-24.535 -24.535,-24.535l-425.977,0c-13.541,0 -24.535,10.994 -24.535,24.535l0,49.071c0,13.541 10.994,24.535 24.535,24.535l425.977,0c13.541,0 24.535,-10.994 24.535,-24.535l0,-49.071Z" style="fill:#004846;"/></g><path id="Schleife" d="M1242.35,40.559l-250.314,0l0,517.729l122.954,-94.996l127.36,94.996l0,-517.729Z" style="fill:#fff;"/></svg>